<svg width="401" height="429" viewBox="0 0 401 429" fill="none" xmlns="http://www.w3.org/2000/svg">
<g clip-path="url(#clip0)">
<path d="M67.4855 325.845C67.4855 325.845 68.8958 295.516 97.8072 299.041L67.4855 325.845Z" fill="#E6E6E6"/>
<path d="M67.146 428.616C67.1098 428.299 63.6974 396.695 77.5146 379.97C82.614 373.797 89.447 370.34 97.8234 369.696L97.9156 370.887C89.8759 371.506 83.3224 374.817 78.4377 380.728C64.9438 397.06 68.2978 428.169 68.3329 428.481L67.146 428.616Z" fill="#E6E6E6"/>
<path d="M67.1804 294.835H65.9778V427.712H67.1804V294.835Z" fill="#E6E6E6"/>
<path d="M67.4855 295.516C72.9377 295.516 77.3576 291.097 77.3576 285.645C77.3576 280.194 72.9377 275.774 67.4855 275.774C62.0332 275.774 57.6133 280.194 57.6133 285.645C57.6133 291.097 62.0332 295.516 67.4855 295.516Z" fill="#C4E87D"/>
<path d="M97.8696 380.1C103.287 380.1 107.679 375.709 107.679 370.291C107.679 364.874 103.287 360.483 97.8696 360.483C92.4518 360.483 88.0598 364.874 88.0598 370.291C88.0598 375.709 92.4518 380.1 97.8696 380.1Z" fill="#E6E6E6"/>
<path d="M401 108.458V109.108C400.985 110.738 400.939 112.361 400.86 113.977C399.453 141.63 387.522 167.698 367.512 186.838C347.503 205.979 320.929 216.742 293.238 216.923C265.546 217.105 238.834 206.689 218.576 187.812C198.317 168.935 186.046 143.026 184.278 115.394C184.13 113.099 184.056 110.787 184.056 108.458C184.017 85.9947 190.99 64.0789 204.002 45.7664C205.042 44.2908 206.125 42.8422 207.249 41.4207C208.023 40.432 208.82 39.4655 209.625 38.5064C227.936 16.8165 254.02 3.16655 282.28 0.485109C310.541 -2.19634 338.727 6.30431 360.792 24.1633C362.098 25.2184 363.382 26.3103 364.636 27.4244C365.64 28.3172 366.626 29.2296 367.595 30.1617C386.681 48.4161 398.429 73.0216 400.624 99.339C400.875 102.349 401 105.389 401 108.458Z" fill="#C4E87D"/>
<path d="M207.249 41.4208C207.302 41.4431 207.351 41.4729 207.396 41.5093C207.979 41.9889 207.249 42.9111 207.337 43.6711C207.44 44.645 208.739 44.859 209.721 44.9549C210.702 45.0582 211.942 45.8476 211.477 46.7183C209.012 47.5667 206.518 46.733 204.002 45.7665C190.99 64.0789 184.017 85.9948 184.056 108.458C184.056 110.79 184.13 113.102 184.278 115.394C184.484 115.544 184.71 115.666 184.949 115.755C185.687 116.036 186.543 115.984 187.222 116.382C187.761 116.7 188.122 117.26 188.661 117.556C190.203 118.397 192.343 116.781 193.782 117.784C194.154 118.123 194.506 118.483 194.837 118.861C196.165 120.012 198.349 119.238 199.884 120.101C200.873 120.654 201.382 121.761 201.914 122.764C203.234 125.273 205.374 127.737 208.201 127.937C209.092 127.896 209.985 127.925 210.872 128.025C211.742 128.224 212.598 128.984 212.458 129.862C212.215 131.375 212.96 133.027 212.761 134.54C212.399 137.307 208.481 138.517 208.149 141.284C208.148 141.893 208.113 142.501 208.046 143.106C207.868 143.829 207.322 144.419 207.131 145.142C206.762 146.507 207.743 147.872 208.813 148.787C209.89 149.709 211.174 150.506 211.765 151.79C212.384 153.155 212.082 154.741 212.281 156.224C212.724 159.463 215.521 161.861 218.398 163.411C219.321 163.796 220.139 164.392 220.789 165.152C221.527 166.222 221.453 167.631 221.704 168.907C222.309 172.028 224.936 174.603 225.01 177.783C225.062 180.048 223.807 182.099 223.055 184.232C222.28 186.467 222.05 188.855 222.383 191.197C226.59 194.764 231.063 198.008 235.761 200.899C236.017 200.521 236.204 200.102 236.315 199.659C236.404 199.17 236.342 198.665 236.138 198.212C235.934 197.759 235.596 197.378 235.171 197.121C235.964 196.822 236.685 196.359 237.289 195.764C237.585 195.459 237.781 195.07 237.849 194.651C237.918 194.231 237.856 193.801 237.672 193.417C238.971 193.58 240.513 193.661 241.369 192.665C242.056 191.868 242.011 190.673 241.738 189.662C241.465 188.644 241.008 187.662 241 186.607C244.009 186.754 247.025 186.653 250.018 186.305C249.585 184.845 248.6 183.612 247.273 182.867C248.63 182.638 249.863 181.015 250.291 179.709C250.661 178.376 250.681 176.971 250.35 175.629C250.247 175.284 250.232 174.919 250.305 174.566C250.524 174.098 250.907 173.728 251.383 173.526C253.626 172.235 255.869 170.946 258.112 169.66C258.513 169.458 258.877 169.191 259.19 168.87C259.891 168.037 259.787 166.79 259.426 165.764C259.064 164.739 258.489 163.772 258.349 162.695C257.935 159.471 261.389 157.154 262.555 154.114C262.951 152.901 263.165 151.635 263.189 150.359C263.285 148.986 263.292 147.4 262.245 146.522C261.234 145.674 259.662 145.865 258.607 145.076C257.64 144.353 257.308 142.958 256.253 142.376C255.294 141.844 254.098 142.184 253.028 141.933C251.154 141.498 249.973 139.336 248.055 139.137C246.977 139.019 245.752 139.55 244.867 138.923C244.085 138.362 244.055 137.248 243.908 136.303C243.646 134.832 242.94 133.477 241.884 132.419C240.829 131.361 239.475 130.652 238.004 130.386C236.89 130.209 235.68 130.275 234.728 129.663C233.769 129.043 233.334 127.885 232.574 127.022C231.363 125.642 229.445 125.148 227.652 124.727C225.217 124.159 222.784 123.588 220.354 123.015C219.062 122.705 217.395 122.543 216.694 123.679C216.486 124.111 216.342 124.571 216.266 125.044C216.002 125.896 215.477 126.642 214.764 127.178C214.051 127.713 213.187 128.009 212.296 128.025C211.686 126.983 210.697 126.217 209.536 125.885C208.777 125.758 208.028 125.581 207.293 125.354C206.909 125.166 206.567 124.902 206.289 124.577C206.011 124.252 205.802 123.875 205.675 123.466C205.548 123.058 205.505 122.628 205.55 122.203C205.595 121.778 205.726 121.367 205.935 120.994C206.354 120.245 206.515 119.38 206.393 118.53C206.272 117.681 205.875 116.896 205.264 116.294C204.024 115.18 202.231 114.907 200.563 115.017C200.128 114.066 200.858 112.996 201.641 112.302C202.43 111.616 203.382 110.937 203.552 109.904C203.825 108.281 201.751 107.049 200.18 107.529C198.608 108.016 197.604 109.543 196.94 111.048C196.618 111.936 196.179 112.777 195.634 113.549C195.355 113.931 194.976 114.228 194.538 114.408C194.1 114.588 193.622 114.643 193.155 114.567C191.856 114.235 191.362 112.693 191.074 111.395C190.613 109.659 190.379 107.871 190.38 106.075C190.391 104.262 191.112 102.525 192.387 101.235C194.535 99.2578 197.84 99.4496 200.74 99.7669C200.43 99.3527 200.281 98.8394 200.322 98.3233C200.362 97.8071 200.59 97.3236 200.962 96.9632C201.35 96.6187 201.816 96.3741 202.32 96.2506C202.824 96.1272 203.351 96.1287 203.854 96.2549C204.729 96.4359 205.516 96.9064 206.09 97.5904C206.917 98.5938 207.153 99.9587 207.773 101.095C208.4 102.239 209.802 103.212 210.946 102.6C211.942 102.069 212.097 100.697 211.853 99.5972C211.602 98.5053 211.078 97.4354 211.167 96.314C211.337 94.1817 213.558 92.8905 215.513 92.0125C217.469 91.1345 219.704 89.9466 220.014 87.8218C220.029 87.4085 220.108 87.0001 220.25 86.6118C220.467 86.2651 220.769 85.9804 221.129 85.7854C226.833 82.0152 232.64 78.1933 239.163 76.1348C239.502 76.0242 239.539 76.1422 239.886 76.0611C240.373 75.7807 240.048 75.006 239.584 74.6961C239.119 74.3862 238.499 74.1427 238.381 73.5968C238.3 73.1983 238.536 72.7999 238.595 72.3941C238.61 72.149 238.565 71.9039 238.464 71.6802C238.363 71.4565 238.208 71.261 238.013 71.111C237.819 70.961 237.591 70.861 237.348 70.8197C237.106 70.7784 236.858 70.7971 236.625 70.8742C236.101 70.1807 237.134 69.3765 237.975 69.1404C240.494 68.4505 243.078 68.0301 245.686 67.8861C245.987 67.8364 246.296 67.8883 246.564 68.0337C246.756 68.2187 246.87 68.47 246.882 68.7361C246.894 69.0023 246.804 69.2631 246.631 69.465C246.276 69.8593 245.883 70.2176 245.457 70.5349C245.034 70.946 244.732 71.4655 244.583 72.0366C244.435 72.6078 244.446 73.2087 244.616 73.7738C245.981 74.4674 247.457 75.1831 248.97 74.9396C250.475 74.6961 251.811 72.9991 251.102 71.6489C250.446 70.3873 248.461 70.0995 248.121 68.7198C247.723 67.104 250.01 65.6653 249.494 64.0864C249.272 63.3928 248.579 62.9796 248.047 62.4853C247.422 61.8698 246.997 61.0802 246.827 60.2195C246.657 59.3587 246.751 58.4668 247.095 57.66C246.232 57.8109 245.344 57.7531 244.507 57.4912C243.67 57.2294 242.908 56.7712 242.284 56.1549C241.133 54.9965 240.218 53.1594 238.58 53.2184C237.082 53.2627 235.791 55.0113 234.389 54.48C234.042 54.3472 233.68 54.0816 233.348 54.2366C233.239 54.307 233.147 54.4013 233.079 54.5125C233.011 54.6237 232.97 54.7488 232.957 54.8785C232.603 56.5828 233.215 58.5233 232.286 59.9989C231.275 61.5999 228.936 61.8213 227.711 63.2674C227.047 64.0495 226.788 65.1045 226.176 65.9309C225.563 66.7572 224.272 67.2885 223.534 66.5654C223.896 65.8247 223.994 64.9832 223.815 64.1789C223.635 63.3746 223.188 62.6551 222.545 62.1385C221.866 61.6925 221.132 61.3354 220.361 61.0761C219.5 60.7129 218.682 60.2577 217.919 59.7185C217.539 59.487 217.23 59.1551 217.026 58.7594C216.865 58.2618 216.886 57.7231 217.085 57.2395C217.458 56.1739 218.115 55.2303 218.985 54.5101C219.855 53.7899 220.905 53.3204 222.021 53.152C222.995 53.0192 224.132 53.0635 224.781 52.3183C225.121 51.9272 225.298 51.3296 225.799 51.1747C226.116 51.1087 226.445 51.1476 226.737 51.2854C227.954 51.7133 229.164 52.1412 230.382 52.5692C230.788 52.7553 231.236 52.8292 231.681 52.7831C231.901 52.7547 232.102 52.6436 232.243 52.4723C232.384 52.301 232.455 52.0824 232.441 51.8609C232.323 51.2559 231.393 50.9681 231.481 50.3557C231.524 50.1557 231.63 49.9746 231.784 49.8393C233.1 48.4396 234.709 47.348 236.496 46.6427C238.284 45.9373 240.205 45.6356 242.122 45.7591C242.579 46.5191 241.856 47.4118 241.244 48.0537C240.639 48.703 240.152 49.854 240.89 50.3483C241.187 50.5044 241.52 50.5807 241.856 50.5697C242.754 50.69 243.626 50.9541 244.439 51.3518C245.701 51.8977 246.94 52.5027 248.151 53.152C247.973 52.361 248.003 51.5372 248.239 50.7615C248.373 50.3807 248.643 50.0633 248.998 49.8709C249.352 49.6786 249.766 49.6252 250.158 49.7212C250.881 50.0016 251.25 50.9607 252.025 51.0493C253.05 51.1673 253.456 49.6474 253.028 48.703C252.6 47.7586 251.744 46.9765 251.678 45.9362C251.626 45.2427 251.892 44.3794 251.338 43.9589C251.142 43.8285 250.916 43.7476 250.682 43.7228C246.048 42.8743 241.411 42.0234 236.772 41.17C235.946 41.015 234.758 41.1331 234.721 41.9668C234.699 42.439 235.119 42.9038 234.935 43.3317C234.736 43.7892 234.086 43.7523 233.614 43.9146C233.259 44.0756 232.966 44.3477 232.78 44.6898C232.594 45.0319 232.524 45.4254 232.581 45.8108C232.707 46.578 233.005 47.3068 233.452 47.9431C232.544 47.5668 231.179 47.5004 230.271 47.1167C230.139 46.0659 229.871 45.0367 229.474 44.0548C229.452 43.8985 229.395 43.7491 229.308 43.6171C229.222 43.4851 229.107 43.3737 228.973 43.2907C228.838 43.2077 228.687 43.1552 228.531 43.1368C228.374 43.1184 228.215 43.1346 228.065 43.1842C226.869 43.3686 225.674 43.5457 224.479 43.7302C224.178 43.7444 223.891 43.8558 223.66 44.0474C223.195 44.5418 223.652 45.3312 223.637 46.01C223.594 46.3896 223.434 46.7462 223.179 47.0305C222.923 47.3148 222.586 47.5125 222.213 47.5963C221.462 47.7488 220.687 47.7387 219.941 47.5668C218.265 47.3085 216.598 47.0503 214.923 46.7921C216.401 46.321 217.716 45.4411 218.716 44.254C219.38 43.4719 219.734 42.0111 218.775 41.6422C218.491 41.5644 218.196 41.5418 217.904 41.5758C215.631 41.5905 213.838 39.6943 211.713 38.8901C211.045 38.6409 210.338 38.511 209.625 38.5065L207.249 41.4208Z" fill="#3F3D56"/>
<path d="M400.86 113.977C400.6 114.326 400.258 114.607 399.864 114.793C399.47 114.98 399.037 115.067 398.602 115.047C396.292 114.848 395.318 111.52 393.031 111.144C392.828 111.092 392.614 111.113 392.426 111.203C392.086 111.387 392.027 111.845 392.005 112.229C391.909 114.132 391.828 116.109 392.573 117.865C393.658 120.433 396.469 122.587 395.879 125.31C392.706 123.842 391.053 120.278 390.308 116.862C389.555 113.446 389.437 109.86 388.094 106.629C387.068 107.935 384.928 106.857 383.999 105.485C383.113 104.186 382.567 102.681 381.711 101.361C380.855 100.047 379.542 98.8668 377.977 98.793C376.332 98.7193 374.9 99.8481 373.646 100.918C372.555 101.724 371.638 102.743 370.953 103.913C370.074 105.684 370.303 107.765 370.259 109.735C370.215 111.86 369.765 114.11 368.311 115.674C366.857 117.231 364.179 117.777 362.577 116.368C361.803 115.561 361.251 114.567 360.976 113.483C359.235 108.41 357.787 103.242 356.637 98.0036C356.372 99.1989 355.316 100.741 354.313 100.04C354.088 99.8492 353.907 99.6127 353.781 99.3464C351.907 96.1812 348.446 94.2777 344.941 93.1341C341.444 91.9978 337.762 91.4666 334.301 90.2123C332.36 89.5077 330.506 88.5844 328.774 87.4603C328.334 88.1082 328.077 88.8628 328.03 89.6446C327.984 90.4263 328.149 91.2062 328.508 91.9019C328.897 92.5827 329.5 93.1159 330.223 93.4188C330.947 93.7216 331.75 93.7772 332.508 93.5767C333.275 93.3259 333.924 92.7947 334.685 92.529C335.445 92.2708 336.47 92.3962 336.802 93.1341C337.127 93.835 336.64 94.6835 336.883 95.4213C337.245 96.5354 338.935 96.6239 339.525 97.6421C339.699 98.0453 339.739 98.4934 339.639 98.9209C339.539 99.3484 339.306 99.7328 338.972 100.018C338.293 100.571 337.543 101.033 336.743 101.39C334.264 102.77 332.5 105.124 330.331 106.953C328.161 108.79 325.099 110.126 322.517 108.953C323.129 105.832 319.417 103.545 318.731 100.438C318.502 99.4128 318.62 98.3282 318.303 97.3322C317.838 95.8861 316.554 94.8974 315.506 93.8055C314.233 92.4649 313.241 90.8833 312.589 89.1537C311.936 87.4242 311.636 85.5816 311.706 83.7343C311.765 82.4505 312.001 81.1446 311.706 79.8903C311.418 78.6434 310.378 77.4334 309.094 77.4851C306.165 77.6179 302.468 77.8392 300.933 75.338C300.379 74.4453 300.143 73.1393 300.94 72.4532C301.501 71.9736 302.327 72.0179 303.058 72.0917C305.264 72.3056 307.463 72.527 309.67 72.741C311.212 72.8885 312.879 73.0139 314.208 72.2097C315.536 71.4055 316.111 69.2585 314.879 68.3067C313.986 67.6132 312.378 67.65 312.112 66.5507C311.898 65.6284 312.916 64.5881 312.363 63.8134C311.972 63.2674 311.086 63.415 310.548 63.8282C310.078 64.3161 309.567 64.7629 309.02 65.1636C307.965 65.7096 306.711 65.1858 305.574 64.8316C304.438 64.4775 302.918 64.4479 302.372 65.503C301.752 66.6761 302.91 68.2255 302.305 69.406C301.494 70.9628 298.763 70.0774 297.627 71.4203C296.328 72.9549 298.512 75.2569 298.077 77.2195C297.517 77.4974 296.893 77.6252 296.269 77.5903C295.644 77.5554 295.039 77.359 294.513 77.0203C293.997 76.6691 293.585 76.1844 293.323 75.6179C293.06 75.0514 292.957 74.4243 293.022 73.8034C293.126 72.918 293.591 72.0105 293.281 71.1768C292.947 70.5329 292.395 70.0284 291.724 69.7528C289.584 68.5649 287.444 67.382 285.304 66.2039C284.706 67.3107 285.459 68.6756 286.403 69.5093C287.341 70.3357 288.521 70.9628 289.141 72.0548C289.533 72.8116 289.622 73.6896 289.389 74.5096C289.156 75.3296 288.619 76.0297 287.887 76.4669C287.794 76.5306 287.689 76.5735 287.578 76.5926C287.467 76.6117 287.353 76.6066 287.245 76.5776C287.142 76.5175 287.053 76.4377 286.982 76.3426C286.911 76.2476 286.86 76.1393 286.831 76.0242C285.702 73.1246 283.998 70.2693 281.282 68.7568C278.559 67.2369 274.656 67.5541 272.87 70.0996C272.45 70.7046 272.162 71.3981 271.793 72.04C269.837 75.4413 265.631 77.0498 261.706 76.9465C261.322 76.9711 260.939 76.8812 260.606 76.6883C259.972 76.2529 260.001 75.3233 260.097 74.556C260.237 73.4714 260.37 72.3942 260.51 71.3096C260.514 70.6474 260.77 70.0114 261.226 69.5315C261.957 68.956 263.004 69.3175 263.934 69.3028C264.636 69.2715 265.311 69.0244 265.867 68.5952C266.423 68.166 266.833 67.5757 267.041 66.9049C267.228 66.2279 267.226 65.5127 267.036 64.8366C266.847 64.1604 266.476 63.5489 265.963 63.0683C265.543 62.6698 264.975 62.1681 265.196 61.6295C265.286 61.4812 265.407 61.3542 265.551 61.2573C265.695 61.1605 265.859 61.0962 266.03 61.0688C267.69 60.5892 269.454 60.4638 271.084 59.8883C272.723 59.3202 274.309 58.1544 274.7 56.4648C274.818 55.9484 274.87 55.3213 275.335 55.063C275.57 54.9688 275.82 54.9188 276.073 54.9154C276.96 54.7883 277.768 54.334 278.337 53.6419C278.906 52.9497 279.196 52.0697 279.15 51.1747C279.932 50.6287 281.031 51.0346 281.791 51.6174C282.544 52.2003 283.216 52.9676 284.138 53.2185C285.857 53.6907 287.518 52.1634 289.303 52.156C290.056 52.156 290.831 52.4216 291.532 52.1634C292.248 51.9052 292.676 51.1969 293.222 50.673C293.775 50.1418 294.734 49.8245 295.243 50.3927C295.096 49.3228 294.956 48.2604 294.808 47.1979C295.677 47.4168 296.584 47.4471 297.466 47.2868C298.348 47.1264 299.185 46.7792 299.922 46.2683C298.062 45.6411 296.21 45.014 294.351 44.3869C294.155 44.3387 293.975 44.2423 293.827 44.1065C293.421 43.6712 293.827 42.9924 294.151 42.4981C294.941 41.3102 295.074 39.355 293.775 38.7647C292.89 38.3589 291.879 38.8459 291.03 39.3181C289.672 40.0707 288.315 40.8306 286.957 41.5832C286.831 42.3579 287.776 42.8006 288.359 43.317C288.714 43.6321 288.966 44.0473 289.08 44.5081C289.195 44.9688 289.167 45.4535 289.001 45.8982C288.835 46.343 288.538 46.7271 288.15 46.9999C287.761 47.2727 287.299 47.4215 286.824 47.4266C287.091 47.7757 287.277 48.1802 287.368 48.6105C287.459 49.0407 287.452 49.4858 287.348 49.9131C286.44 49.9795 285.525 50.0459 284.61 50.1123C284.458 50.1426 284.302 50.1425 284.15 50.1121C283.998 50.0818 283.853 50.0216 283.725 49.9352C283.43 49.677 283.474 49.2195 283.4 48.8359C283.279 48.3773 283.022 47.9656 282.665 47.654C282.307 47.3423 281.864 47.1449 281.393 47.0873C280.453 46.9815 279.501 47.0694 278.596 47.3455C278.203 47.4841 277.772 47.4736 277.386 47.316C277.167 47.171 277.001 46.9586 276.914 46.711C276.753 46.205 276.726 45.6662 276.835 45.1466C276.943 44.6271 277.184 44.1443 277.534 43.745C278.242 42.9582 279.023 42.2394 279.866 41.5979C281.775 39.9266 283.178 37.7541 283.917 35.3266C285.422 34.692 286.979 33.8362 288.492 33.2017C289.708 32.6381 290.982 32.2101 292.292 31.9252C293.525 31.737 294.773 31.6777 296.018 31.7482C297.716 31.7777 299.42 31.8072 301.117 31.8441C302.632 31.7804 304.146 31.9981 305.582 32.486C306.976 33.0615 308.209 34.3084 308.304 35.8135C308.333 35.985 308.318 36.1611 308.26 36.3251C308.202 36.4891 308.103 36.6355 307.972 36.7505C307.776 36.8588 307.554 36.91 307.33 36.8981C305.921 36.9424 305.323 37.2965 303.914 37.3482C304.807 38.2999 305.81 39.3034 307.109 39.473C309.397 39.7682 311.042 37.3998 312.097 35.3413C312.135 35.8653 312.376 36.3537 312.769 36.7025C313.162 37.0512 313.675 37.2326 314.2 37.208C314.766 37.1108 315.305 36.8999 315.787 36.5882C320.325 34.1081 325.41 32.7948 330.582 32.7663C330.531 32.3748 330.627 31.9784 330.852 31.654C331.077 31.3295 331.415 31.1001 331.799 31.0104C332.854 30.8038 333.799 31.7113 334.308 32.6557C334.81 33.6001 335.127 34.692 335.939 35.4003C336.743 36.1086 338.3 36.0717 338.618 35.0536C338.927 34.0723 337.902 33.2312 337.053 32.6483C336.197 32.0728 335.304 31.003 335.88 30.1471C340.219 29.1805 344.595 28.2214 349.044 28.0296C349.8 28.0525 350.553 27.9219 351.258 27.6459C351.607 27.4982 351.897 27.2395 352.084 26.91C352.271 26.5805 352.343 26.1986 352.291 25.8235C351.32 26.0501 350.304 25.9831 349.371 25.631C348.438 25.279 347.631 24.6577 347.052 23.8462C351.619 23.4699 356.401 23.1379 360.792 24.1634L364.636 27.4245C363.906 28.1845 362.931 28.9002 363.463 29.6601C363.638 29.8346 363.851 29.9672 364.085 30.0477C364.318 30.1282 364.568 30.1546 364.813 30.1249C365.743 30.1397 366.673 30.1618 367.595 30.1618C386.681 48.4162 398.429 73.0217 400.624 99.3391C399.074 99.2801 397.65 101.243 397.849 102.954C398.085 104.939 399.517 106.533 400.542 108.244C400.712 108.523 400.865 108.811 401 109.108L400.86 113.977Z" fill="#3F3D56"/>
<path d="M257.445 215.213C267.74 215.213 276.085 206.868 276.085 196.574C276.085 186.28 267.74 177.935 257.445 177.935C247.149 177.935 238.804 186.28 238.804 196.574C238.804 206.868 247.149 215.213 257.445 215.213Z" fill="#2F2E41"/>
<path d="M248.546 205.99C248.546 205.99 242.474 219.433 240.74 219.867C239.005 220.3 255.051 228.106 255.051 228.106C255.051 228.106 258.087 211.628 259.388 210.76C260.689 209.893 248.546 205.99 248.546 205.99Z" fill="#FFB9B9"/>
<path d="M212.55 316.134L201.274 347.789L213.417 352.56L234.235 311.364L212.55 316.134Z" fill="#FFB9B9"/>
<path d="M252.016 317.001C252.016 317.001 274.568 348.657 275.869 349.09C277.17 349.524 286.277 341.719 286.277 341.719C286.277 341.719 275.001 314.399 271.532 313.099C268.062 311.798 252.016 317.001 252.016 317.001Z" fill="#FFB9B9"/>
<path d="M199.539 342.152L181.758 388.551C181.758 388.551 183.059 391.153 181.758 391.587C180.457 392.02 177.421 398.959 177.421 399.392C177.421 399.826 174.385 400.26 174.385 401.56C174.385 402.861 171.783 413.269 171.783 413.269C171.783 413.269 176.553 423.676 179.589 420.64C182.625 417.605 183.926 411.534 183.926 411.534L188.263 400.26C188.263 400.26 187.829 394.189 190.865 393.321C193.901 392.454 195.636 381.613 195.636 381.613C195.636 381.613 200.406 376.843 201.274 375.542C202.141 374.241 217.32 351.259 216.019 350.825C214.718 350.391 199.539 342.152 199.539 342.152Z" fill="#2F2E41"/>
<path d="M273.266 348.223L286.277 339.55C286.277 339.55 308.829 380.746 308.829 381.613C308.829 382.48 307.962 385.082 308.829 385.95C309.696 386.817 317.069 400.693 321.84 401.994C326.61 403.295 327.478 408.499 323.575 409.366C319.671 410.233 314.467 412.401 313.166 409.366C312.405 407.58 311.536 405.842 310.564 404.162C310.564 404.162 306.227 405.463 305.793 404.596C305.293 403.318 304.858 402.016 304.492 400.693C304.492 400.693 301.023 394.622 301.023 392.454C301.023 390.286 298.854 389.852 298.854 389.852C298.854 389.852 294.084 378.578 291.048 376.843C288.012 375.109 285.41 366.436 285.41 366.436L273.266 348.223Z" fill="#2F2E41"/>
<path d="M257.654 215.964C264.6 215.964 270.231 210.334 270.231 203.389C270.231 196.443 264.6 190.813 257.654 190.813C250.707 190.813 245.077 196.443 245.077 203.389C245.077 210.334 250.707 215.964 257.654 215.964Z" fill="#FFB9B9"/>
<path d="M220.356 279.709C220.356 279.709 201.742 329.152 204.344 329.152C206.946 329.152 278.935 330.718 281.103 327.249C283.272 323.78 262.424 289.249 261.557 288.815C260.689 288.381 220.356 279.709 220.356 279.709Z" fill="#2F2E41"/>
<path d="M201.707 176.503L188.697 156.556C188.697 156.556 191.914 135.631 187.577 139.534C183.24 143.436 181.868 159.197 181.868 159.197L196.937 182.14L201.707 176.503Z" fill="#FFB9B9"/>
<path d="M319.671 212.929L331.381 212.061C331.381 212.061 345.259 197.318 346.127 202.088C346.994 206.858 334.851 217.265 334.851 217.265L318.804 218.999L319.671 212.929Z" fill="#FFB9B9"/>
<path d="M234.234 217.265V212.929C234.234 212.929 222.958 205.557 223.392 204.256C223.826 202.955 222.525 202.088 222.525 202.088C222.525 202.088 221.224 200.353 221.224 199.919C221.224 199.486 219.489 199.052 219.489 199.052L208.647 186.477C208.647 186.477 202.575 174.335 201.274 174.769C199.973 175.202 193.034 177.804 193.901 179.539C194.768 181.273 219.055 218.566 219.055 218.566C219.055 218.566 220.356 226.805 222.525 226.805C224.693 226.805 234.234 217.265 234.234 217.265Z" fill="#3F3D56"/>
<path d="M263.292 222.469C263.292 222.469 272.833 222.035 273.266 222.469C273.7 222.902 279.772 222.469 279.772 222.469C279.772 222.469 296.252 218.566 297.553 217.265C298.854 215.964 320.539 210.327 321.406 212.929C322.273 215.53 324.442 220.734 322.273 221.601C320.105 222.469 261.557 237.212 261.557 237.212L263.292 222.469Z" fill="#3F3D56"/>
<path d="M250.924 184.67C255.184 184.67 258.637 181.217 258.637 176.957C258.637 172.698 255.184 169.245 250.924 169.245C246.664 169.245 243.21 172.698 243.21 176.957C243.21 181.217 246.664 184.67 250.924 184.67Z" fill="#2F2E41"/>
<path d="M240.639 172.779C240.639 170.873 241.345 169.034 242.621 167.618C243.897 166.201 245.653 165.307 247.549 165.109C247.282 165.081 247.014 165.067 246.746 165.067C244.7 165.067 242.738 165.88 241.291 167.326C239.845 168.772 239.032 170.734 239.032 172.779C239.032 174.825 239.845 176.787 241.291 178.233C242.738 179.679 244.7 180.492 246.746 180.492C247.014 180.492 247.282 180.478 247.549 180.45C245.653 180.252 243.897 179.358 242.621 177.941C241.345 176.525 240.639 174.686 240.639 172.779Z" fill="#2F2E41"/>
<path d="M259.613 200.335C266.713 200.335 272.469 196.882 272.469 192.622C272.469 188.363 266.713 184.91 259.613 184.91C252.513 184.91 246.757 188.363 246.757 192.622C246.757 196.882 252.513 200.335 259.613 200.335Z" fill="#2F2E41"/>
<path d="M244.86 212.712C244.86 212.712 240.957 215.747 240.089 216.181C239.222 216.614 234.018 212.278 233.15 212.278C232.283 212.278 221.007 225.287 221.007 225.287C221.007 225.287 223.102 227.701 221.007 240.031C220.221 244.655 218.662 264.425 218.662 267.027C218.662 269.629 210.165 276.023 217.971 281.66C225.777 287.297 263.075 293.368 263.508 289.899C263.942 286.43 259.172 277.324 261.34 272.987C263.508 268.651 263.508 252.606 263.508 252.606L266.111 235.694L268.279 222.252C268.279 222.252 258.087 219.433 257.22 219.433C256.353 219.433 252.449 225.504 244.86 212.712Z" fill="#3F3D56"/>
<path d="M399.282 427.653H0V429H399.282V427.653Z" fill="#3F3D56"/>
</g>
<defs>
<clipPath id="clip0">
<rect width="401" height="429" fill="white"/>
</clipPath>
</defs>
</svg>
